HIERARCHY
ROOT joint_Root
{
  OFFSET 0 0 0
  CHANNELS 6 Xposition Yposition Zposition Zrotation Xrotation Yrotation
  JOINT Hips
  {
    OFFSET 0.847027 93.984 -452.225
    CHANNELS 6 Xposition Yposition Zposition Zrotation Xrotation Yrotation
    JOINT Spine
    {
      OFFSET 15.7357 0 0
      CHANNELS 6 Xposition Yposition Zposition Zrotation Xrotation Yrotation
      JOINT Chest
      {
        OFFSET 8.98455 -0.406207 0
        CHANNELS 6 Xposition Yposition Zposition Zrotation Xrotation Yrotation
        JOINT Neck
        {
          OFFSET 16.3773 0 0
          CHANNELS 6 Xposition Yposition Zposition Zrotation Xrotation Yrotation
          JOINT Head
          {
            OFFSET 6.45672 0 0
            CHANNELS 6 Xposition Yposition Zposition Zrotation Xrotation Yrotation
            End Site
            {
              OFFSET 0 0 0
            }
          }
        }
        JOINT Shoulder_L
        {
          OFFSET 12.9942 -0.242716 4.98039
          CHANNELS 6 Xposition Yposition Zposition Zrotation Xrotation Yrotation
          JOINT UpperArm_L
          {
            OFFSET 5.34809 0 0
            CHANNELS 6 Xposition Yposition Zposition Zrotation Xrotation Yrotation
            JOINT LowerArm_L
            {
              OFFSET 24.3286 1.87007e-05 0
              CHANNELS 6 Xposition Yposition Zposition Zrotation Xrotation Yrotation
              JOINT Hand_L
              {
                OFFSET 22.2916 0 0
                CHANNELS 6 Xposition Yposition Zposition Zrotation Xrotation Yrotation
                End Site
                {
                  OFFSET 0 0 0
                }
              }
            }
          }
        }
        JOINT Shoulder_R
        {
          OFFSET 12.9945 -0.242716 -4.98039
          CHANNELS 6 Xposition Yposition Zposition Zrotation Xrotation Yrotation
          JOINT UpperArm_R
          {
            OFFSET -5.34813 0 0
            CHANNELS 6 Xposition Yposition Zposition Zrotation Xrotation Yrotation
            JOINT LowerArm_R
            {
              OFFSET -24.3289 0.000322201 0
              CHANNELS 6 Xposition Yposition Zposition Zrotation Xrotation Yrotation
              JOINT Hand_R
              {
                OFFSET -22.2915 -0.000108084 0
                CHANNELS 6 Xposition Yposition Zposition Zrotation Xrotation Yrotation
                End Site
                {
                  OFFSET 0 0 0
                }
              }
            }
          }
        }
      }
    }
    JOINT UpperLeg_L
    {
      OFFSET -2.19248 -6.46944 0
      CHANNELS 6 Xposition Yposition Zposition Zrotation Xrotation Yrotation
      JOINT LowerLeg_L
      {
        OFFSET 39.0811 0 -1.23785e-05
        CHANNELS 6 Xposition Yposition Zposition Zrotation Xrotation Yrotation
        JOINT Foot_L
        {
          OFFSET 40.9854 0 -1.26872e-05
          CHANNELS 6 Xposition Yposition Zposition Zrotation Xrotation Yrotation
          JOINT Toes_L
          {
            OFFSET 11.7543 0 0
            CHANNELS 6 Xposition Yposition Zposition Zrotation Xrotation Yrotation
            End Site
            {
              OFFSET 0 0 0
            }
          }
        }
      }
    }
    JOINT UpperLeg_R
    {
      OFFSET -2.19251 6.46944 0
      CHANNELS 6 Xposition Yposition Zposition Zrotation Xrotation Yrotation
      JOINT LowerLeg_R
      {
        OFFSET -39.0811 -0.00228153 -0.0401928
        CHANNELS 6 Xposition Yposition Zposition Zrotation Xrotation Yrotation
        JOINT Foot_R
        {
          OFFSET -40.9854 0 0
          CHANNELS 6 Xposition Yposition Zposition Zrotation Xrotation Yrotation
          JOINT Toes_R
          {
            OFFSET -11.7543 0 0
            CHANNELS 6 Xposition Yposition Zposition Zrotation Xrotation Yrotation
            End Site
            {
              OFFSET 0 0 0
            }
          }
        }
      }
    }
  }
}
MOTION
Frames:	8
Frame Time:	0.0333333
0 0 0 0 0 -0 0.854265 89.9847 65.3875 89.7492 -3.59961 4.55215 15.7357 5.1072e-06 -5.51765e-07 92.9909 83.1317 -93.1585 8.98455 -0.406207 -4.3199e-07 5.95335 0.71748 -0.371997 16.3773 -1.3905e-06 -6.99897e-07 -0.0587419 -2.84007 2.03101 6.45672 -1.25837e-06 -1.02172e-07 -5.57512 -2.55517 3.84677 12.9942 -0.242716 4.98039 -91.0212 3.00541 -86.2232 5.34809 -7.22636e-06 -6.2814e-07 -70.9008 4.20812 8.96394 24.3286 1.87007e-05 4.90208e-06 0.836829 0.582915 -55.121 22.2916 -9.88446e-07 4.63217e-06 19.9485 5.61727 -12.4397 12.9945 -0.242716 -4.98039 87.6973 11.4486 -93.5477 -5.34813 -1.25947e-06 -3.79883e-06 -62.7623 5.9638 10.0903 -24.3289 0.000322201 -8.65921e-06 6.05738 3.82045 -57.8797 -22.2915 -0.000108084 -4.47941e-06 16.6276 5.42433 -3.74686 -2.19248 -6.46944 -1.22534e-07 -173.313 -1.99753 -21.15 39.0811 -6.73843e-06 -1.23785e-05 0.263822 -0.188257 53.5058 40.9854 -6.48686e-06 -1.26872e-05 -10.6059 10.1779 -59.5427 11.7543 -2.30145e-07 3.05095e-06 0.110261 -0.180656 -19.7579 -2.19251 6.46944 -1.45247e-06 178.295 4.88169 158.411 -39.0811 -0.00228153 -0.0401928 0.116575 -0.164209 31.2413 -40.9854 7.72618e-06 5.99936e-06 -1.07795 -2.24213 -60.3765 -11.7543 -5.6619e-06 -5.58687e-06 0.285153 -0.335624 -19.8126 
0 0 0 0 0 -0 1.10549 89.4993 63.308 89.0837 -4.03522 4.30878 15.7357 5.1072e-06 -5.51765e-07 88.8628 83.3929 -89.0924 8.98455 -0.406207 -4.3199e-07 5.44503 -0.257026 -0.446449 16.3773 -1.3905e-06 -6.99897e-07 -0.00842444 -2.88575 1.95877 6.45672 -1.25837e-06 -1.02172e-07 -5.53168 -2.10449 4.34246 12.9942 -0.242716 4.98039 -90.9734 2.92472 -86.5835 5.34809 -7.22636e-06 -6.2814e-07 -69.5907 6.20875 4.35971 24.3286 1.87007e-05 4.90208e-06 1.23336 0.703227 -60.3082 22.2916 -9.88446e-07 4.63217e-06 20.3583 5.61369 -12.2003 12.9945 -0.242716 -4.98039 87.5831 11.7702 -93.3093 -5.34813 -1.25947e-06 -3.79883e-06 -63.3082 7.96234 13.982 -24.3289 0.000322201 -8.65921e-06 5.94654 4.27022 -54.4487 -22.2915 -0.000108084 -4.47941e-06 15.2483 5.43364 -4.06543 -2.19248 -6.46944 -1.22533e-07 -172.586 -2.60633 -17.8214 39.0811 -6.73843e-06 -1.23785e-05 0.289448 -0.187445 55.6669 40.9854 -6.48686e-06 -1.26872e-05 -9.67477 10.2622 -59.4592 11.7543 -2.30145e-07 3.05095e-06 0.199096 -0.344929 -22.564 -2.19251 6.46944 -1.45247e-06 179.157 5.16712 156.495 -39.0811 -0.00228153 -0.0401928 0.136182 -0.191651 31.6728 -40.9854 7.72618e-06 5.99936e-06 -0.850261 -1.99865 -60.2047 -11.7543 -5.6619e-06 -5.58687e-06 0.2995 -0.35357 -19.9815 
0 0 0 0 0 -0 1.4875 88.5959 60.7972 88.5114 -4.19533 3.85873 15.7357 5.1072e-06 -5.51765e-07 83.871 83.5105 -84.1786 8.98455 -0.406207 -4.3199e-07 5.13641 -1.37578 -0.552724 16.3773 -1.3905e-06 -6.99897e-07 -0.153272 -3.04783 1.9049 6.45672 -1.25837e-06 -1.02172e-07 -5.9334 -1.7079 4.83095 12.9942 -0.242716 4.98039 -90.8538 2.65772 -87.1836 5.34809 -7.22636e-06 -6.2814e-07 -67.7376 7.346 -0.897615 24.3286 1.87007e-05 4.90208e-06 2.13256 0.960396 -65.7424 22.2916 -9.88446e-07 4.63217e-06 20.4155 5.60277 -11.5065 12.9945 -0.242716 -4.98039 87.4937 11.9485 -93.0624 -5.34813 -1.25947e-06 -3.79883e-06 -63.6328 9.66792 17.5957 -24.3289 0.000322201 -8.65921e-06 6.79362 5.24984 -52.4793 -22.2915 -0.000108084 -4.47941e-06 13.9772 5.43568 -4.13664 -2.19248 -6.46944 -1.22534e-07 -172.629 -2.32048 -14.1596 39.0811 -6.73843e-06 -1.23785e-05 0.211053 -0.135245 54.3423 40.9854 -6.48686e-06 -1.26872e-05 -3.83257 8.97247 -61.9403 11.7543 -2.30145e-07 3.05095e-06 0.489734 -1.1076 -34.8479 -2.19251 6.46944 -1.45247e-06 179.972 6.00668 153.351 -39.0811 -0.00228153 -0.0401928 0.157442 -0.214261 33.2104 -40.9854 7.72618e-06 5.99936e-06 -0.538868 -1.39076 -59.6244 -11.7543 -5.6619e-06 -5.58687e-06 0.298192 -0.351929 -19.9662 
0 0 0 0 0 -0 1.9364 87.5343 57.7898 88.4843 -3.65144 3.90096 15.7357 5.1072e-06 -5.51765e-07 77.8811 83.1545 -78.431 8.98455 -0.406207 -4.3199e-07 5.61178 -2.85707 -0.958533 16.3773 -1.3905e-06 -6.99897e-07 -0.722277 -3.34423 1.79141 6.45672 -1.25837e-06 -1.02172e-07 -6.87321 -1.37816 5.43652 12.9942 -0.242716 4.98039 -90.7601 2.47037 -87.8927 5.34809 -7.22636e-06 -6.2814e-07 -65.4056 7.08581 -6.70901 24.3286 1.87007e-05 4.90208e-06 3.68079 1.27178 -70.959 22.2916 -9.88446e-07 4.63217e-06 20.0733 5.58634 -10.5574 12.9945 -0.242716 -4.98039 87.2618 12.4304 -92.4734 -5.34813 -1.25947e-06 -3.79883e-06 -63.1905 11.1739 20.5916 -24.3289 0.000322201 -8.65921e-06 7.50722 5.89595 -52.0683 -22.2915 -0.000108084 -4.47941e-06 12.9972 5.44408 -4.42955 -2.19248 -6.46944 -1.22533e-07 -173.003 -1.07207 -10.3736 39.0811 -6.73843e-06 -1.23785e-05 0.100411 -0.0677781 48.0485 40.9854 -6.48686e-06 -1.26872e-05 -1.78639 8.29508 -74.8575 11.7543 -2.30145e-07 3.05095e-06 0.271671 -0.49542 -25.0742 -2.19251 6.46944 -1.45247e-06 -179.8 7.45162 150.288 -39.0811 -0.00228153 -0.0401928 0.180397 -0.23853 34.8886 -40.9854 7.72618e-06 5.99936e-06 -0.218525 -0.846607 -59.1732 -11.7543 -5.6619e-06 -5.58687e-06 0.29992 -0.354092 -19.9864 
0 0 0 0 0 -0 2.22862 86.7347 54.4442 89.1458 -1.2752 4.49838 15.7357 5.1072e-06 -5.51765e-07 70.244 82.1799 -71.3153 8.98455 -0.406207 -4.3199e-07 6.92741 -5.26089 -1.8227 16.3773 -1.3905e-06 -6.99897e-07 -1.89143 -3.8739 1.72529 6.45672 -1.25837e-06 -1.02172e-07 -8.16728 -1.06477 6.11111 12.9942 -0.242716 4.98039 -90.6377 2.19586 -88.8054 5.34809 -7.22636e-06 -6.2814e-07 -63.0333 5.49821 -12.5379 24.3286 1.87007e-05 4.90208e-06 3.82359 1.04638 -74.7208 22.2916 -9.88446e-07 4.63217e-06 20.5638 5.58252 -10.3459 12.9945 -0.242716 -4.98039 86.7453 13.4783 -91.2896 -5.34813 -1.25947e-06 -3.79883e-06 -62.3837 11.7664 22.4835 -24.3289 0.000322201 -8.65921e-06 7.95535 6.22039 -52.2166 -22.2915 -0.000108084 -4.47941e-06 12.364 5.45021 -4.64717 -2.19248 -6.46944 -1.22534e-07 -174.368 1.50735 -11.5764 39.0811 -6.73843e-06 -1.23785e-05 0.0737862 -0.0462873 47.4552 40.9854 -6.48686e-06 -1.26872e-05 -0.427515 6.5358 -79.2486 11.7543 -2.30145e-07 3.05095e-06 0.112493 -0.184567 -19.8255 -2.19251 6.46944 -1.45247e-06 179.521 10.0887 148.405 -39.0811 -0.00228153 -0.0401928 0.200272 -0.263418 35.657 -40.9854 7.72618e-06 5.99936e-06 -0.00509676 -1.48402 -59.8988 -11.7543 -5.6619e-06 -5.58687e-06 0.285908 -0.336567 -19.8214 
0 0 0 0 0 -0 2.14398 86.4464 51.2243 88.9154 1.57524 4.69031 15.7357 5.1072e-06 -5.51765e-07 65.7554 81.4862 -66.968 8.98455 -0.406207 -4.3199e-07 7.72985 -6.96326 -1.95389 16.3773 -1.3905e-06 -6.99897e-07 -2.27628 -5.01508 1.48488 6.45672 -1.25837e-06 -1.02172e-07 -9.50926 -1.1167 6.14162 12.9942 -0.242716 4.98039 -90.3259 1.23584 -90.2326 5.34809 -7.22636e-06 -6.2814e-07 -62.8074 3.44457 -16.6075 24.3286 1.87007e-05 4.90208e-06 3.38917 0.823581 -76.3582 22.2916 -9.88446e-07 4.63217e-06 21.5504 5.58523 -10.4956 12.9945 -0.242716 -4.98039 86.2482 13.763 -89.5899 -5.34813 -1.25947e-06 -3.79883e-06 -62.8429 9.86635 24.2161 -24.3289 0.000322201 -8.65921e-06 8.50629 6.75334 -51.8278 -22.2915 -0.000108084 -4.47941e-06 11.7864 5.45387 -4.77902 -2.19248 -6.46944 -1.22534e-07 -173.966 3.40548 -15.1167 39.0811 -6.73843e-06 -1.23785e-05 0.0865548 -0.0566001 49.1709 40.9854 -6.48686e-06 -1.26872e-05 -0.339046 7.57565 -78.8994 11.7543 -2.30145e-07 3.05095e-06 0.0801836 -0.129085 -18.8608 -2.19251 6.46944 -1.45247e-06 179.655 12.0532 147.902 -39.0811 -0.00228153 -0.0401928 0.172696 -0.243842 34.064 -40.9854 7.72618e-06 5.99936e-06 0.16974 -3.73403 -60.9245 -11.7543 -5.6619e-06 -5.58687e-06 0.263125 -0.308302 -19.5546 
0 0 0 0 0 -0 2.00973 86.7465 48.5052 88.4603 2.15882 5.0047 15.7357 5.1072e-06 -5.51765e-07 66.1963 81.2743 -67.3178 8.98455 -0.406207 -4.3199e-07 8.1787 -7.016 -1.74071 16.3773 -1.3905e-06 -6.99897e-07 -2.42403 -5.4483 1.0257 6.45672 -1.25837e-06 -1.02172e-07 -10.0484 -1.39194 4.79789 12.9942 -0.242716 4.98039 -90.1536 0.611008 -90.891 5.34809 -7.22636e-06 -6.2814e-07 -63.9965 1.88117 -17.9642 24.3286 1.87007e-05 4.90208e-06 2.67279 0.628864 -76.7688 22.2916 -9.88446e-07 4.63217e-06 22.8569 5.58776 -10.631 12.9945 -0.242716 -4.98039 86.302 13.2423 -89.2438 -5.34813 -1.25947e-06 -3.79883e-06 -64.2191 5.51168 26.1606 -24.3289 0.000322201 -8.65921e-06 8.36056 6.69705 -51.5713 -22.2915 -0.000108084 -4.47941e-06 11.4757 5.44911 -4.60755 -2.19248 -6.46944 -1.22534e-07 -173.066 1.71461 -16.9353 39.0811 -6.73843e-06 -1.23785e-05 0.102493 -0.0728603 48.8775 40.9854 -6.48686e-06 -1.26872e-05 0.0482675 9.80945 -76.7451 11.7543 -2.30145e-07 3.05095e-06 0.0756619 -0.121491 -18.7281 -2.19251 6.46944 -1.45247e-06 179.552 11.5194 149.095 -39.0811 -0.00228153 -0.0401928 0.0709 -0.108842 31.4816 -40.9854 7.72618e-06 5.99936e-06 -2.92235 -4.03959 -60.9799 -11.7543 -5.6619e-06 -5.58687e-06 0.240976 -0.281064 -19.2965 
0 0 0 0 0 -0 1.92604 87.5331 46.274 88.3779 1.51938 5.29988 15.7357 5.1072e-06 -5.51765e-07 67.3273 81.4204 -68.3972 8.98455 -0.406207 -4.3199e-07 8.04613 -6.58812 -1.6755 16.3773 -1.3905e-06 -6.99897e-07 -2.13195 -4.97335 0.610523 6.45672 -1.25837e-06 -1.02172e-07 -9.99931 -1.28804 2.81928 12.9942 -0.242716 4.98039 -90.1749 0.674019 -90.4573 5.34809 -7.22636e-06 -6.2814e-07 -65.0862 1.47164 -16.5704 24.3286 1.87007e-05 4.90208e-06 0.132297 0.0320672 -76.2796 22.2916 -9.88446e-07 4.63217e-06 24.5729 5.59696 -11.1602 12.9945 -0.242716 -4.98039 86.5753 12.6655 -89.7337 -5.34813 -1.25947e-06 -3.79883e-06 -65.7604 2.68898 27.746 -24.3289 0.000322201 -8.65921e-06 6.73937 5.34185 -51.7732 -22.2915 -0.000108084 -4.47941e-06 12.069 5.43915 -4.25635 -2.19248 -6.46944 -1.22533e-07 -172.876 0.541823 -16.9112 39.0811 -6.73843e-06 -1.23785e-05 0.0981695 -0.0774332 46.2922 40.9854 -6.48686e-06 -1.26872e-05 -0.203792 10.3722 -74.0294 11.7543 -2.30145e-07 3.05095e-06 0.0667615 -0.106673 -18.4684 -2.19251 6.46944 -1.45247e-06 179.222 10.2484 149.561 -39.0811 -0.00228153 -0.0401928 0.0770854 -0.110937 33.2546 -40.9854 7.72618e-06 5.99936e-06 -4.38724 -2.36083 -59.6828 -11.7543 -5.6619e-06 -5.58687e-06 0.236575 -0.275664 -19.2453 
